<svg width="34" height="25" viewBox="0 0 34 25" fill="none" xmlns="http://www.w3.org/2000/svg">
<g clip-path="url(#clip0_224_5854)">
<path d="M17 0.390625C7.90454 0.390625 0.53125 5.81216 0.53125 12.5C0.53125 19.1878 7.90454 24.6094 17 24.6094C26.0955 24.6094 33.4688 19.1878 33.4688 12.5C33.4688 5.81216 26.0955 0.390625 17 0.390625ZM24.7784 17.3219C24.6727 17.4131 22.1371 19.5549 17.4836 19.5549C11.8596 19.5549 7.889 16.466 7.889 12.4471C7.889 8.47725 12.0064 5.44512 17.4357 5.44512C21.8821 5.44512 24.2068 7.26714 24.3036 7.34473C24.4228 7.44028 24.4955 7.56221 24.5104 7.69142C24.5253 7.82063 24.4814 7.94981 24.3858 8.05874L22.8996 9.75088C22.6307 10.0569 22.0513 10.1098 21.6887 9.86294C21.6733 9.85249 19.9271 8.69692 17.5795 8.69692C14.5171 8.69692 12.671 10.3363 12.671 12.4119C12.671 14.3456 14.3653 16.3031 17.6035 16.3031C20.1732 16.3031 21.9385 14.9194 21.956 14.9054C22.2968 14.6336 22.8896 14.6596 23.1851 14.9568L24.8152 16.596C24.9209 16.7024 24.9749 16.832 24.9682 16.9637C24.9615 17.0954 24.8947 17.2216 24.7784 17.3219Z" fill="#6CC51D"/>
</g>
<defs>
<clipPath id="clip0_224_5854">
<rect width="34" height="25" fill="white"/>
</clipPath>
</defs>
</svg>
