<svg width="22" height="23" viewBox="0 0 22 23" fill="none" xmlns="http://www.w3.org/2000/svg">
<path d="M0 10.1598H9.375V0.716309H0V10.1598ZM3.125 3.86415H6.25V7.012H3.125V3.86415ZM12.5 0.716309V10.1598H21.875V0.716309H12.5ZM18.75 7.012H15.625V3.86415H18.75V7.012ZM0 22.7512H9.375V13.3077H0V22.7512ZM3.125 16.4555H6.25V19.6034H3.125V16.4555ZM20.3125 13.3077H21.875V19.6034H17.1875V18.0294H15.625V22.7512H12.5V13.3077H17.1875V14.8816H20.3125V13.3077ZM20.3125 21.1773H21.875V22.7512H20.3125V21.1773ZM17.1875 21.1773H18.75V22.7512H17.1875V21.1773Z" fill="black"/>
</svg>
